<mxfile host="app.diagrams.net" modified="2023-09-08T23:57:00.855Z" agent="Mozilla/5.0 (Windows NT 10.0; Win64; x64) AppleWebKit/537.36 (KHTML, like Gecko) Chrome/114.0.0.0 YaBrowser/23.7.4.971 Yowser/2.5 Safari/537.36" etag="ZoD1KW37-7vNmsvmZ77j" version="21.7.4" type="device">
  <diagram name="Страница — 1" id="FWlIxJMI62qIkL9UFML7">
    <mxGraphModel dx="2550" dy="1058" grid="0" gridSize="10" guides="1" tooltips="1" connect="1" arrows="1" fold="1" page="0" pageScale="1" pageWidth="827" pageHeight="1169" math="0" shadow="0">
      <root>
        <mxCell id="0" />
        <mxCell id="1" parent="0" />
        <mxCell id="6XjprCjFbuch5S9KeiR_-14" value="" style="edgeStyle=none;curved=1;rounded=0;orthogonalLoop=1;jettySize=auto;html=1;fontSize=12;startSize=8;endSize=8;exitX=0;exitY=0.3333333333333333;exitDx=0;exitDy=0;exitPerimeter=0;" edge="1" parent="1" source="6XjprCjFbuch5S9KeiR_-1" target="6XjprCjFbuch5S9KeiR_-27">
          <mxGeometry relative="1" as="geometry">
            <mxPoint x="243" y="425.58620689655163" as="targetPoint" />
          </mxGeometry>
        </mxCell>
        <mxCell id="6XjprCjFbuch5S9KeiR_-37" style="edgeStyle=none;curved=1;rounded=0;orthogonalLoop=1;jettySize=auto;html=1;exitX=0.75;exitY=0.1;exitDx=0;exitDy=0;exitPerimeter=0;entryX=0;entryY=1;entryDx=0;entryDy=0;fontSize=12;startSize=8;endSize=8;" edge="1" parent="1" source="6XjprCjFbuch5S9KeiR_-1" target="6XjprCjFbuch5S9KeiR_-36">
          <mxGeometry relative="1" as="geometry" />
        </mxCell>
        <mxCell id="6XjprCjFbuch5S9KeiR_-39" style="edgeStyle=none;curved=1;rounded=0;orthogonalLoop=1;jettySize=auto;html=1;exitX=1;exitY=0.3333333333333333;exitDx=0;exitDy=0;exitPerimeter=0;entryX=0.065;entryY=0.767;entryDx=0;entryDy=0;entryPerimeter=0;fontSize=12;startSize=8;endSize=8;" edge="1" parent="1" source="6XjprCjFbuch5S9KeiR_-1" target="6XjprCjFbuch5S9KeiR_-38">
          <mxGeometry relative="1" as="geometry" />
        </mxCell>
        <mxCell id="6XjprCjFbuch5S9KeiR_-42" style="edgeStyle=none;curved=1;rounded=0;orthogonalLoop=1;jettySize=auto;html=1;exitX=0.25;exitY=0.1;exitDx=0;exitDy=0;exitPerimeter=0;entryX=0.5;entryY=1;entryDx=0;entryDy=0;fontSize=12;startSize=8;endSize=8;" edge="1" parent="1" source="6XjprCjFbuch5S9KeiR_-1" target="6XjprCjFbuch5S9KeiR_-31">
          <mxGeometry relative="1" as="geometry" />
        </mxCell>
        <mxCell id="6XjprCjFbuch5S9KeiR_-1" value="Клиент&lt;br&gt;" style="shape=umlActor;verticalLabelPosition=bottom;verticalAlign=top;html=1;outlineConnect=0;fontSize=16;" vertex="1" parent="1">
          <mxGeometry x="120" y="407" width="30" height="60" as="geometry" />
        </mxCell>
        <mxCell id="6XjprCjFbuch5S9KeiR_-12" style="edgeStyle=none;curved=1;rounded=0;orthogonalLoop=1;jettySize=auto;html=1;exitX=0.5;exitY=0.5;exitDx=0;exitDy=0;exitPerimeter=0;entryX=0;entryY=0.5;entryDx=0;entryDy=0;fontSize=12;startSize=8;endSize=8;" edge="1" parent="1" source="6XjprCjFbuch5S9KeiR_-5" target="6XjprCjFbuch5S9KeiR_-26">
          <mxGeometry relative="1" as="geometry">
            <mxPoint x="286" y="540" as="targetPoint" />
          </mxGeometry>
        </mxCell>
        <mxCell id="6XjprCjFbuch5S9KeiR_-21" style="edgeStyle=none;curved=1;rounded=0;orthogonalLoop=1;jettySize=auto;html=1;exitX=0.5;exitY=0.5;exitDx=0;exitDy=0;exitPerimeter=0;fontSize=12;startSize=8;endSize=8;" edge="1" parent="1" source="6XjprCjFbuch5S9KeiR_-5" target="6XjprCjFbuch5S9KeiR_-28">
          <mxGeometry relative="1" as="geometry">
            <mxPoint x="299" y="618.155172413793" as="targetPoint" />
          </mxGeometry>
        </mxCell>
        <mxCell id="6XjprCjFbuch5S9KeiR_-34" style="edgeStyle=none;curved=1;rounded=0;orthogonalLoop=1;jettySize=auto;html=1;exitX=0.5;exitY=0.5;exitDx=0;exitDy=0;exitPerimeter=0;entryX=1;entryY=0.5;entryDx=0;entryDy=0;fontSize=12;startSize=8;endSize=8;" edge="1" parent="1" source="6XjprCjFbuch5S9KeiR_-5" target="6XjprCjFbuch5S9KeiR_-33">
          <mxGeometry relative="1" as="geometry" />
        </mxCell>
        <mxCell id="6XjprCjFbuch5S9KeiR_-5" value="Дизайнер ремонта" style="shape=umlActor;verticalLabelPosition=bottom;verticalAlign=top;html=1;outlineConnect=0;fontSize=16;" vertex="1" parent="1">
          <mxGeometry x="114" y="560" width="30" height="60" as="geometry" />
        </mxCell>
        <mxCell id="6XjprCjFbuch5S9KeiR_-46" style="edgeStyle=none;curved=1;rounded=0;orthogonalLoop=1;jettySize=auto;html=1;exitX=1;exitY=0.3333333333333333;exitDx=0;exitDy=0;exitPerimeter=0;fontSize=12;startSize=8;endSize=8;" edge="1" parent="1" source="6XjprCjFbuch5S9KeiR_-22" target="6XjprCjFbuch5S9KeiR_-43">
          <mxGeometry relative="1" as="geometry" />
        </mxCell>
        <mxCell id="6XjprCjFbuch5S9KeiR_-48" style="edgeStyle=none;curved=1;rounded=0;orthogonalLoop=1;jettySize=auto;html=1;exitX=0;exitY=0.3333333333333333;exitDx=0;exitDy=0;exitPerimeter=0;fontSize=12;startSize=8;endSize=8;entryX=1;entryY=0.5;entryDx=0;entryDy=0;" edge="1" parent="1" source="6XjprCjFbuch5S9KeiR_-22" target="6XjprCjFbuch5S9KeiR_-49">
          <mxGeometry relative="1" as="geometry">
            <mxPoint x="14" y="721" as="targetPoint" />
          </mxGeometry>
        </mxCell>
        <mxCell id="6XjprCjFbuch5S9KeiR_-22" value="Начальник" style="shape=umlActor;verticalLabelPosition=bottom;verticalAlign=top;html=1;outlineConnect=0;fontSize=16;" vertex="1" parent="1">
          <mxGeometry x="111" y="691" width="30" height="60" as="geometry" />
        </mxCell>
        <mxCell id="6XjprCjFbuch5S9KeiR_-70" style="edgeStyle=none;curved=1;rounded=0;orthogonalLoop=1;jettySize=auto;html=1;exitX=0;exitY=0.3333333333333333;exitDx=0;exitDy=0;exitPerimeter=0;entryX=1;entryY=0.5;entryDx=0;entryDy=0;fontSize=12;startSize=8;endSize=8;" edge="1" parent="1" source="6XjprCjFbuch5S9KeiR_-24" target="6XjprCjFbuch5S9KeiR_-69">
          <mxGeometry relative="1" as="geometry" />
        </mxCell>
        <mxCell id="6XjprCjFbuch5S9KeiR_-72" style="edgeStyle=none;curved=1;rounded=0;orthogonalLoop=1;jettySize=auto;html=1;exitX=1;exitY=0.3333333333333333;exitDx=0;exitDy=0;exitPerimeter=0;fontSize=12;startSize=8;endSize=8;entryX=0;entryY=0.5;entryDx=0;entryDy=0;" edge="1" parent="1" source="6XjprCjFbuch5S9KeiR_-24" target="6XjprCjFbuch5S9KeiR_-73">
          <mxGeometry relative="1" as="geometry">
            <mxPoint x="218" y="857.1797752808986" as="targetPoint" />
          </mxGeometry>
        </mxCell>
        <mxCell id="6XjprCjFbuch5S9KeiR_-76" style="edgeStyle=none;curved=1;rounded=0;orthogonalLoop=1;jettySize=auto;html=1;exitX=0;exitY=1;exitDx=0;exitDy=0;exitPerimeter=0;entryX=1;entryY=0.5;entryDx=0;entryDy=0;fontSize=12;startSize=8;endSize=8;" edge="1" parent="1" source="6XjprCjFbuch5S9KeiR_-24" target="6XjprCjFbuch5S9KeiR_-75">
          <mxGeometry relative="1" as="geometry" />
        </mxCell>
        <mxCell id="6XjprCjFbuch5S9KeiR_-24" value="Бригадир" style="shape=umlActor;verticalLabelPosition=bottom;verticalAlign=top;html=1;outlineConnect=0;fontSize=16;" vertex="1" parent="1">
          <mxGeometry x="111" y="840" width="30" height="60" as="geometry" />
        </mxCell>
        <mxCell id="6XjprCjFbuch5S9KeiR_-26" value="Оформление договора" style="ellipse;whiteSpace=wrap;html=1;fontSize=16;" vertex="1" parent="1">
          <mxGeometry x="220" y="474" width="120" height="80" as="geometry" />
        </mxCell>
        <mxCell id="6XjprCjFbuch5S9KeiR_-27" value="Просмотр и выбор готовых проектов" style="ellipse;whiteSpace=wrap;html=1;fontSize=16;" vertex="1" parent="1">
          <mxGeometry x="-72" y="337.99620689655166" width="120" height="80" as="geometry" />
        </mxCell>
        <mxCell id="6XjprCjFbuch5S9KeiR_-28" value="Предоставляет готовые проекты" style="ellipse;whiteSpace=wrap;html=1;fontSize=16;" vertex="1" parent="1">
          <mxGeometry x="284" y="567" width="143" height="87" as="geometry" />
        </mxCell>
        <mxCell id="6XjprCjFbuch5S9KeiR_-31" value="Оплата услуг и материалов" style="ellipse;whiteSpace=wrap;html=1;fontSize=16;" vertex="1" parent="1">
          <mxGeometry x="21" y="253" width="120" height="80" as="geometry" />
        </mxCell>
        <mxCell id="6XjprCjFbuch5S9KeiR_-33" value="Предоставляет эскизы ремонта" style="ellipse;whiteSpace=wrap;html=1;fontSize=16;" vertex="1" parent="1">
          <mxGeometry x="-93" y="482" width="126" height="87" as="geometry" />
        </mxCell>
        <mxCell id="6XjprCjFbuch5S9KeiR_-36" value="Представляет помещение для ремонта" style="ellipse;whiteSpace=wrap;html=1;fontSize=16;" vertex="1" parent="1">
          <mxGeometry x="164" y="243" width="129" height="88" as="geometry" />
        </mxCell>
        <mxCell id="6XjprCjFbuch5S9KeiR_-38" value="Дата дедлайна" style="ellipse;whiteSpace=wrap;html=1;fontSize=16;" vertex="1" parent="1">
          <mxGeometry x="253" y="338" width="120" height="80" as="geometry" />
        </mxCell>
        <mxCell id="6XjprCjFbuch5S9KeiR_-43" value="Дата получения материалов&amp;nbsp;" style="ellipse;whiteSpace=wrap;html=1;fontSize=16;" vertex="1" parent="1">
          <mxGeometry x="262" y="677" width="141" height="95" as="geometry" />
        </mxCell>
        <mxCell id="6XjprCjFbuch5S9KeiR_-49" value="Составляет план работы" style="ellipse;whiteSpace=wrap;html=1;fontSize=16;" vertex="1" parent="1">
          <mxGeometry x="-80" y="651" width="120" height="80" as="geometry" />
        </mxCell>
        <mxCell id="6XjprCjFbuch5S9KeiR_-62" value="" style="endArrow=block;endSize=16;endFill=0;html=1;rounded=0;fontSize=12;curved=1;exitX=0.5;exitY=0;exitDx=0;exitDy=0;exitPerimeter=0;" edge="1" parent="1" source="6XjprCjFbuch5S9KeiR_-24" target="6XjprCjFbuch5S9KeiR_-22">
          <mxGeometry width="160" relative="1" as="geometry">
            <mxPoint x="169" y="899" as="sourcePoint" />
            <mxPoint x="177" y="739" as="targetPoint" />
          </mxGeometry>
        </mxCell>
        <mxCell id="6XjprCjFbuch5S9KeiR_-63" value="" style="endArrow=block;endSize=16;endFill=0;html=1;rounded=0;fontSize=12;curved=1;exitX=0.5;exitY=0;exitDx=0;exitDy=0;exitPerimeter=0;" edge="1" parent="1" source="6XjprCjFbuch5S9KeiR_-22" target="6XjprCjFbuch5S9KeiR_-5">
          <mxGeometry width="160" relative="1" as="geometry">
            <mxPoint x="242" y="881" as="sourcePoint" />
            <mxPoint x="250" y="811" as="targetPoint" />
          </mxGeometry>
        </mxCell>
        <mxCell id="6XjprCjFbuch5S9KeiR_-65" value="" style="endArrow=block;endSize=16;endFill=0;html=1;rounded=0;fontSize=12;curved=1;exitX=0.5;exitY=0;exitDx=0;exitDy=0;exitPerimeter=0;" edge="1" parent="1" source="6XjprCjFbuch5S9KeiR_-5" target="6XjprCjFbuch5S9KeiR_-1">
          <mxGeometry width="160" relative="1" as="geometry">
            <mxPoint x="136" y="701" as="sourcePoint" />
            <mxPoint x="138" y="630" as="targetPoint" />
          </mxGeometry>
        </mxCell>
        <mxCell id="6XjprCjFbuch5S9KeiR_-66" value="" style="endArrow=open;endSize=12;dashed=1;html=1;rounded=0;fontSize=12;curved=1;exitX=1;exitY=0.5;exitDx=0;exitDy=0;entryX=0;entryY=0.5;entryDx=0;entryDy=0;" edge="1" parent="1" source="6XjprCjFbuch5S9KeiR_-43" target="6XjprCjFbuch5S9KeiR_-67">
          <mxGeometry width="160" relative="1" as="geometry">
            <mxPoint x="441" y="740" as="sourcePoint" />
            <mxPoint x="485" y="740" as="targetPoint" />
          </mxGeometry>
        </mxCell>
        <mxCell id="6XjprCjFbuch5S9KeiR_-67" value="Отправка материалов со склада в пункт назначения" style="ellipse;whiteSpace=wrap;html=1;fontSize=16;" vertex="1" parent="1">
          <mxGeometry x="451" y="674" width="148" height="101" as="geometry" />
        </mxCell>
        <mxCell id="6XjprCjFbuch5S9KeiR_-69" value="Следит и распределяет работу&amp;nbsp;" style="ellipse;whiteSpace=wrap;html=1;fontSize=16;" vertex="1" parent="1">
          <mxGeometry x="-80" y="751" width="134" height="98" as="geometry" />
        </mxCell>
        <mxCell id="6XjprCjFbuch5S9KeiR_-73" value="Обеспечивает материалами и инструментами" style="ellipse;whiteSpace=wrap;html=1;fontSize=16;" vertex="1" parent="1">
          <mxGeometry x="213" y="779" width="138" height="102" as="geometry" />
        </mxCell>
        <mxCell id="6XjprCjFbuch5S9KeiR_-75" value="Следит за качеством выполнимой работы" style="ellipse;whiteSpace=wrap;html=1;fontSize=16;" vertex="1" parent="1">
          <mxGeometry x="-105" y="862" width="126" height="94" as="geometry" />
        </mxCell>
        <mxCell id="6XjprCjFbuch5S9KeiR_-85" style="edgeStyle=none;curved=1;rounded=0;orthogonalLoop=1;jettySize=auto;html=1;exitX=0;exitY=0.3333333333333333;exitDx=0;exitDy=0;exitPerimeter=0;fontSize=12;startSize=8;endSize=8;" edge="1" parent="1" source="6XjprCjFbuch5S9KeiR_-77" target="6XjprCjFbuch5S9KeiR_-86">
          <mxGeometry relative="1" as="geometry">
            <mxPoint x="20" y="1048.3113207547167" as="targetPoint" />
          </mxGeometry>
        </mxCell>
        <mxCell id="6XjprCjFbuch5S9KeiR_-88" style="edgeStyle=none;curved=1;rounded=0;orthogonalLoop=1;jettySize=auto;html=1;exitX=1;exitY=0.3333333333333333;exitDx=0;exitDy=0;exitPerimeter=0;fontSize=12;startSize=8;endSize=8;entryX=0;entryY=0.5;entryDx=0;entryDy=0;" edge="1" parent="1" source="6XjprCjFbuch5S9KeiR_-77" target="6XjprCjFbuch5S9KeiR_-89">
          <mxGeometry relative="1" as="geometry">
            <mxPoint x="244" y="1026.7627118644068" as="targetPoint" />
          </mxGeometry>
        </mxCell>
        <mxCell id="6XjprCjFbuch5S9KeiR_-92" style="edgeStyle=none;curved=1;rounded=0;orthogonalLoop=1;jettySize=auto;html=1;exitX=1;exitY=1;exitDx=0;exitDy=0;exitPerimeter=0;fontSize=12;startSize=8;endSize=8;entryX=0;entryY=0.5;entryDx=0;entryDy=0;" edge="1" parent="1" source="6XjprCjFbuch5S9KeiR_-77" target="6XjprCjFbuch5S9KeiR_-93">
          <mxGeometry relative="1" as="geometry">
            <mxPoint x="259" y="1063.5675675675675" as="targetPoint" />
          </mxGeometry>
        </mxCell>
        <mxCell id="6XjprCjFbuch5S9KeiR_-95" style="edgeStyle=none;curved=1;rounded=0;orthogonalLoop=1;jettySize=auto;html=1;exitX=0;exitY=1;exitDx=0;exitDy=0;exitPerimeter=0;fontSize=12;startSize=8;endSize=8;entryX=1;entryY=0.5;entryDx=0;entryDy=0;" edge="1" parent="1" source="6XjprCjFbuch5S9KeiR_-77" target="6XjprCjFbuch5S9KeiR_-96">
          <mxGeometry relative="1" as="geometry">
            <mxPoint x="-58" y="1155" as="targetPoint" />
          </mxGeometry>
        </mxCell>
        <mxCell id="6XjprCjFbuch5S9KeiR_-77" value="Рабочий" style="shape=umlActor;verticalLabelPosition=bottom;verticalAlign=top;html=1;outlineConnect=0;fontSize=16;" vertex="1" parent="1">
          <mxGeometry x="111" y="1012" width="30" height="60" as="geometry" />
        </mxCell>
        <mxCell id="6XjprCjFbuch5S9KeiR_-81" value="" style="endArrow=block;endSize=16;endFill=0;html=1;rounded=0;fontSize=12;curved=1;exitX=0.5;exitY=0;exitDx=0;exitDy=0;exitPerimeter=0;" edge="1" parent="1" source="6XjprCjFbuch5S9KeiR_-77" target="6XjprCjFbuch5S9KeiR_-24">
          <mxGeometry width="160" relative="1" as="geometry">
            <mxPoint x="139" y="853" as="sourcePoint" />
            <mxPoint x="129" y="924" as="targetPoint" />
          </mxGeometry>
        </mxCell>
        <mxCell id="6XjprCjFbuch5S9KeiR_-86" value="Участие в процессе возведения строительных конструкций" style="ellipse;whiteSpace=wrap;html=1;fontSize=16;" vertex="1" parent="1">
          <mxGeometry x="-125" y="966" width="148" height="119" as="geometry" />
        </mxCell>
        <mxCell id="6XjprCjFbuch5S9KeiR_-89" value="Перевозка и разгрузка материалов" style="ellipse;whiteSpace=wrap;html=1;fontSize=16;" vertex="1" parent="1">
          <mxGeometry x="184" y="927" width="136" height="85" as="geometry" />
        </mxCell>
        <mxCell id="6XjprCjFbuch5S9KeiR_-93" value="Обслуживание и ремонт строительного оборудования" style="ellipse;whiteSpace=wrap;html=1;fontSize=16;" vertex="1" parent="1">
          <mxGeometry x="253" y="1058" width="163" height="111" as="geometry" />
        </mxCell>
        <mxCell id="6XjprCjFbuch5S9KeiR_-96" value="Выполнение различных отделочных работ" style="ellipse;whiteSpace=wrap;html=1;fontSize=16;" vertex="1" parent="1">
          <mxGeometry x="-143" y="1092" width="158" height="108" as="geometry" />
        </mxCell>
      </root>
    </mxGraphModel>
  </diagram>
</mxfile>
